<?xml version="1.0" encoding="utf-8"?>
<!-- Generator: Adobe Illustrator 13.0.0, SVG Export Plug-In . SVG Version: 6.00 Build 14948)  -->
<!DOCTYPE svg PUBLIC "-//W3C//DTD SVG 1.1//EN" "http://www.w3.org/Graphics/SVG/1.1/DTD/svg11.dtd">
<svg version="1.1" id="Слой_1" xmlns="http://www.w3.org/2000/svg" xmlns:xlink="http://www.w3.org/1999/xlink" x="0px" y="0px"
	 width="805.911px" height="361.578px" viewBox="0 0 805.911 361.578" enable-background="new 0 0 805.911 361.578"
	 xml:space="preserve">
<g id="XMLID_1_">
	<g>
		<path fill="#FFFFFF" d="M732.175,187.069v56.46c0,4.77-3.83,8.63-8.569,8.63c-4.73,0-8.561-3.86-8.561-8.63v-3.13
			c-5.84,7.229-14.18,11.76-23.42,11.76c-17.67,0-31.99-16.5-31.99-36.86c0-20.359,14.32-36.87,31.99-36.87
			c9.24,0,17.58,4.54,23.42,11.77v-3.13c0-4.771,3.83-8.64,8.561-8.64C728.345,178.429,732.175,182.299,732.175,187.069z
			 M715.045,218.609v-6.62c-1.39-10.65-9.37-18.83-18.99-18.83c-10.609,0-19.21,9.91-19.21,22.14c0,12.23,8.601,22.141,19.21,22.141
			C705.675,237.439,713.656,229.259,715.045,218.609z"/>
		<path fill="#FFFFFF" d="M645.366,187.069v56.46c0,4.77-4,8.64-8.93,8.64c-4.921,0-8.91-3.87-8.91-8.64v-56.46
			c0-4.771,3.989-8.64,8.91-8.64C641.366,178.429,645.366,182.299,645.366,187.069z"/>
		<path fill="#FFFFFF" d="M647.566,158.789c0,6.14-4.98,11.12-11.11,11.13h-0.01c-6.12,0-11.11-4.98-11.11-11.1
			c-0.01-6.14,4.98-11.12,11.101-11.13C642.566,147.689,647.555,152.669,647.566,158.789z"/>
		<path fill="#FFFFFF" d="M612.746,202.489c0.76,2.04,0.67,4.3-0.24,6.27c-0.899,1.98-2.56,3.511-4.59,4.261l-44.31,16.27
			c3.72,4.01,9,6.52,14.859,6.52c7.78,0,14.98-4.579,18.351-11.659c1.93-4.07,6.779-5.801,10.81-3.841
			c4.05,1.961,5.75,6.851,3.811,10.921c-6.051,12.72-18.99,20.939-32.98,20.939c-15.71,0-29.16-10.07-34.31-24.14
			c-0.03-0.09-0.07-0.181-0.101-0.271c-0.04-0.1-0.07-0.22-0.109-0.33c-1.32-3.8-2.03-7.88-2.03-12.13
			c0-20.33,16.399-36.87,36.55-36.87C593.675,178.429,607.465,188.099,612.746,202.489z M558.175,213.869l34.9-12.811
			c-3.76-3.909-9.01-6.27-14.62-6.27C567.725,194.789,558.906,203.229,558.175,213.869z"/>
		<path fill="#FFFFFF" d="M528.635,187.069v64.68c0,18.85-14.84,36.09-34.529,36.09c-15.891,0-16.49-11.91-12.73-15.13
			c3.46-2.96,4.47-2.13,12.73-2.13c8.649,0,17.39-8.46,17.39-18.83v-11.32c-5.84,7.24-14.16,11.771-23.42,11.771
			c-17.66,0-31.99-16.521-31.99-36.88c0-20.37,14.33-36.89,31.99-36.89c9.26,0,17.58,4.54,23.42,11.78v-3.14
			c0-4.771,3.84-8.64,8.57-8.64C524.795,178.429,528.635,182.299,528.635,187.069z M511.496,218.619v-6.62
			c-1.38-10.66-9.35-18.83-18.99-18.83c-10.609,0-19.21,9.91-19.21,22.15c0,12.22,8.601,22.14,19.21,22.14
			C502.146,237.459,510.116,229.279,511.496,218.619z"/>
		<path fill="#FFFFFF" d="M442.625,187.069v56.46c0,4.77-3.83,8.63-8.56,8.63c-4.73,0-8.57-3.86-8.57-8.63v-3.13
			c-5.84,7.229-14.17,11.76-23.42,11.76c-17.67,0-31.99-16.5-31.99-36.86c0-20.359,14.32-36.87,31.99-36.87
			c9.25,0,17.58,4.54,23.42,11.77v-3.13c0-4.771,3.84-8.64,8.57-8.64C438.795,178.429,442.625,182.299,442.625,187.069z
			 M425.496,218.609v-6.62c-1.39-10.65-9.36-18.83-19-18.83c-10.61,0-19.2,9.91-19.2,22.14c0,12.23,8.59,22.141,19.2,22.141
			C416.135,237.439,424.106,229.259,425.496,218.609z"/>
		<path fill="#FFFFFF" d="M356.625,210.439v33.02c0,4.8-3.9,8.71-8.71,8.71c-4.79,0-8.7-3.91-8.7-8.71v-33.02
			c0-8.051-5.04-14.61-13.1-14.61s-13.11,6.56-13.11,14.61v33.02c0,4.8-3.9,8.71-8.7,8.71c-4.8,0-8.71-3.91-8.71-8.71v-33.02
			c0-8.051-5.05-14.61-13.1-14.61c-8.07,0-13.1,6.56-13.1,14.61v33.02c0,4.8-3.91,8.71-8.71,8.71s-8.71-3.91-8.71-8.71v-33.02
			c0-17.65,12.86-32.01,30.52-32.01c8.8,0,15.77,3.68,21.81,10.1c6.03-6.42,13-10.1,21.81-10.1
			C343.766,178.429,356.625,192.789,356.625,210.439z"/>
		<path fill="#FFFFFF" d="M187.855,148.019c15.81,13.29,24.88,33.01,24.88,54.12c0,38.381-30.06,69.61-67,69.61
			c-36.95,0-67-31.229-67-69.61c0-21.1,9.07-40.82,24.9-54.12c3.6-3.04,8.87-3.04,12.48,0c8.51,7.15,18.75,10.93,29.62,10.93
			c10.88,0,21.13-3.78,29.63-10.93C178.976,144.979,184.246,144.979,187.855,148.019z M193.235,202.169
			c0-12.74-4.53-24.76-12.61-33.95c-10.45,6.63-22.56,10.21-34.89,10.21c-12.32,0-24.43-3.58-34.88-10.21
			c-8.09,9.19-12.62,21.22-12.62,33.95c0,27.601,21.31,50.05,47.5,50.05C171.926,252.219,193.235,229.77,193.235,202.169z"/>
		<path fill="#FFFFFF" d="M176.735,129.719c0,6.08-4.93,11.01-10.99,11.02h-0.01c-6.06,0-11-4.93-11-10.99
			c-0.01-6.07,4.92-11.01,10.99-11.01S176.726,123.669,176.735,129.719z"/>
		<path fill="#FFFFFF" d="M171.735,94.719c0,2.42-0.93,4.68-2.63,6.38c-1.7,1.7-3.96,2.63-6.37,2.64c-4.96,0-9-4.03-9-8.99
			c0-4.97,4.03-9.01,8.99-9.01C167.696,85.739,171.726,89.769,171.735,94.719z"/>
		<path fill="#FFFFFF" d="M153.735,111.719c0,2.68-1.04,5.19-2.93,7.08c-1.88,1.89-4.39,2.94-7.06,2.94h-0.01
			c-5.51,0-10-4.48-10-9.99c0-2.68,1.03-5.19,2.92-7.08c1.89-1.89,4.4-2.93,7.07-2.93
			C149.246,101.739,153.726,106.219,153.735,111.719z"/>
		<path fill="#FFFFFF" d="M146.735,81.729c0,4.41-3.59,8-8,8.01c-4.41,0-8-3.59-8-7.99c-0.01-2.15,0.82-4.15,2.33-5.67
			c1.51-1.51,3.52-2.34,5.66-2.35C143.136,73.729,146.726,77.319,146.735,81.729z"/>
		<path fill="#FFFFFF" d="M141.735,136.719c0,6.63-5.38,12.01-11.99,12.02h-0.01c-6.61,0-12-5.38-12-11.98
			c-0.01-6.63,5.37-12.01,11.99-12.02C136.346,124.739,141.726,130.109,141.735,136.719z"/>
	</g>
	<g>
	</g>
</g>
</svg>
