<?xml version="1.0" encoding="utf-8"?>
<!DOCTYPE svg PUBLIC "-//W3C//DTD SVG 1.1//EN" "http://www.w3.org/Graphics/SVG/1.1/DTD/svg11.dtd" [
]>
<svg version="1.1"
	 xmlns="http://www.w3.org/2000/svg" xmlns:xlink="http://www.w3.org/1999/xlink"
	 x="0px" y="0px" width="128px" height="128px" viewBox="-24.147 -3.873 128 128" enable-background="new -24.147 -3.873 128 128"
	 xml:space="preserve">
<defs>
</defs>
<path d="M23.206,38.3c0.002-4.002,3.241-7.241,7.243-7.243l0,0c4,0.002,7.241,3.241,7.241,7.243l0,0c0,4-3.241,7.241-7.241,7.241
	l0,0C26.447,45.541,23.208,42.3,23.206,38.3L23.206,38.3z M28.205,38.3c0.002,1.237,1.007,2.24,2.244,2.242l0,0
	c1.237-0.002,2.24-1.005,2.242-2.242l0,0c-0.002-1.237-1.005-2.242-2.242-2.244l0,0C29.21,36.058,28.207,37.061,28.205,38.3
	L28.205,38.3z"/>
<path d="M33,23.126c0.002-3.388,2.744-6.129,6.132-6.132l0,0c3.386,0.002,6.129,2.744,6.129,6.132l0,0
	c0,3.386-2.743,6.128-6.129,6.13l0,0C35.744,29.254,33.002,26.513,33,23.126L33,23.126z M38,23.126
	c0.002,0.623,0.508,1.128,1.132,1.13l0,0c0.623-0.002,1.13-0.508,1.13-1.13l0,0c0-0.625-0.507-1.13-1.13-1.132l0,0
	C38.507,21.997,38.002,22.502,38,23.126L38,23.126z"/>
<path d="M46.449,33.527c0.002-3.681,2.98-6.662,6.662-6.662l0,0c3.68,0,6.658,2.981,6.661,6.662l0,0
	c-0.003,3.681-2.981,6.66-6.661,6.662l0,0C49.429,40.187,46.451,37.208,46.449,33.527L46.449,33.527z M51.447,33.527
	c0.003,0.916,0.748,1.661,1.664,1.661l0,0c0.918,0,1.66-0.745,1.662-1.661l0,0c-0.002-0.918-0.744-1.661-1.662-1.663l0,0
	C52.195,31.866,51.45,32.609,51.447,33.527L51.447,33.527z"/>
<path d="M30.945,5.07c0.002-2.801,2.269-5.068,5.07-5.07l0,0c2.8,0.002,5.069,2.269,5.071,5.07l0,0
	c-0.002,2.8-2.269,5.067-5.071,5.069l0,0C33.214,10.137,30.947,7.87,30.945,5.07L30.945,5.07z M35.946,5.07
	c0,0.036,0.032,0.068,0.069,0.068l0,0c0.038,0,0.07-0.032,0.07-0.068l0,0c0-0.037-0.032-0.069-0.07-0.069l0,0
	C35.979,5.001,35.946,5.031,35.946,5.07L35.946,5.07z"/>
<path d="M44.419,13.024c0.002-3.296,2.672-5.965,5.967-5.967l0,0c3.295,0.002,5.963,2.67,5.965,5.967l0,0h-0.002
	c0,3.294-2.668,5.962-5.963,5.964l0,0C47.091,18.987,44.421,16.32,44.419,13.024L44.419,13.024z M49.42,13.024
	c0,0.53,0.434,0.964,0.966,0.964l0,0c0.531,0,0.963-0.432,0.965-0.964l0,0c-0.002-0.533-0.434-0.964-0.965-0.966l0,0
	C49.854,12.06,49.42,12.492,49.42,13.024L49.42,13.024z"/>
<path d="M40.646,120.156c-11.289,0.006-21.532-4.818-28.836-12.486l0,0C4.489,100.006-0.002,89.441,0,77.857l0,0
	c0-13.238,5.866-25.115,15.105-32.892l0,0c2.186-1.839,5.387-1.839,7.573,0.002l0,0c4.984,4.188,11.17,6.64,17.968,6.645l0,0
	c6.797-0.004,12.998-2.458,17.98-6.645l0,0c2.184-1.841,5.388-1.841,7.573-0.002l0,0c9.241,7.781,15.091,19.659,15.091,32.892l0,0
	c0.002,11.584-4.488,22.148-11.807,29.812l0,0c-7.303,7.662-17.537,12.486-28.816,12.486l0,0
	C40.66,120.156,40.652,120.156,40.646,120.156L40.646,120.156z M11.757,77.857c0,8.53,3.292,16.178,8.555,21.694l0,0
	c5.279,5.514,12.421,8.844,20.334,8.849l0,0c7.912-0.005,15.054-3.335,20.331-8.849l0,0c5.266-5.519,8.558-13.164,8.56-21.694l0,0
	c0-8.037-2.926-15.29-7.666-20.711l0,0c-6.162,3.933-13.451,6.226-21.225,6.223l0,0c-7.775,0.005-15.056-2.291-21.213-6.223l0,0
	C14.688,62.57,11.755,69.825,11.757,77.857L11.757,77.857z M15.105,53.958l3.786-4.495L15.105,53.958L15.105,53.958z"/>
</svg>
